<svg width="415" height="138" viewBox="0 0 415 138" fill="none" xmlns="http://www.w3.org/2000/svg">
<path d="M1 34.8635L2.99517 31.3133L6.58647 42.2369L8.58164 41.6908L9.77874 48.7912L11.3749 32.6787L15.7643 36.502L18.5575 29.9478L21.7498 47.9719L22.5478 90.3012L24.144 72.004L26.9372 81.5622L30.1295 69.2731L31.3266 67.0883C32.2577 63.174 34.1996 54.1984 34.5188 49.6104C34.9179 43.8755 36.913 34.3173 37.3121 33.498L38.5092 48.7912C38.6422 47.1526 40.0255 42.5647 44.4947 37.3213L46.0908 44.4217L47.2879 38.6867C47.953 43.0562 49.5225 52.0137 50.4802 52.8875L53.2734 41.4177L54.8696 43.3293L57.2638 20.9357L58.8599 36.502L60.456 38.6867L61.6531 45.241L63.2493 41.4177L64.4464 26.3976C65.6435 32.1325 68.7559 44.0394 71.629 45.7871L72.8261 37.3213L74.8213 35.4096L76.4174 41.6908L78.4126 37.3213L80.0087 41.4177L81.6048 43.3293L83.6 37.8675L84.7971 1C85.1961 5.7336 86.3134 15.6924 87.5903 17.6586L89.5855 17.3855L92.3787 35.9558L93.5758 30.7671L95.172 30.494L95.97 29.1285L97.9652 32.4056L99.1623 23.3936L100.758 29.1285L101.956 30.494L103.552 40.0522L104.749 43.3293L106.744 40.0522L107.941 42.7831L109.138 62.992L110.734 50.7028L113.528 51.5221C114.326 49.7925 116.002 45.0771 116.321 40.0522L119.114 42.2369L120.71 40.8715L122.306 47.9719L123.902 60.5341L125.1 56.7108L126.696 65.4498L128.292 64.0843L132.282 50.1566L133.878 50.7028L135.474 49.0643H136.671L139.465 39.7791L141.061 40.8715L142.258 40.5984L144.253 61.6265L145.45 52.6145L147.046 51.5221H148.243L149.441 50.4297H151.037L153.431 43.3293L155.426 40.8715L157.022 28.5823L159.017 29.4016L159.815 31.0402L161.013 30.2209L164.205 41.1446L166.998 66.2691L167.796 48.7912L169.791 44.9679L171.387 55.6185L174.58 52.0683L176.575 50.1566L178.171 44.1486L180.166 43.3293L182.56 53.1606L183.757 44.4217L185.753 43.6024L186.95 45.241L189.344 45.7871L190.94 51.7952L192.536 53.1606L194.132 42.51L196.926 37.5944H200.118L201.714 33.7711L203.709 35.4096L204.507 31.8594L206.901 30.7671L208.498 33.498L210.094 32.9518L211.291 29.4016L212.887 28.3092L214.483 22.3012L215.68 23.9398L216.877 26.6707L218.872 25.8514L220.469 27.7631L221.666 31.8594L222.863 29.4016L224.459 29.9478L231.642 42.7831L233.238 37.5944L236.829 48.5181L238.824 56.7108L240.021 49.3373L242.016 59.1687L246.007 43.3293L247.204 42.51L248.8 45.5141L250.396 47.4257L251.194 55.3454L253.189 57.257L254.786 48.5181L255.983 49.8835L259.175 50.4297L260.372 53.7068L263.963 49.3373L264.761 45.5141L265.958 46.8795L267.954 42.7831L270.747 41.1446L271.944 42.7831L273.54 42.2369L274.338 45.5141L276.333 47.4257L277.53 44.4217L279.127 52.3414L280.723 42.7831L281.92 43.6024L283.516 44.1486L285.112 46.6064L287.506 35.6827L289.102 36.502L290.699 35.4096L292.295 35.6827C292.827 33.68 294.05 29.5108 294.689 28.8554L296.684 33.2249V31.0402L297.482 32.6787L297.881 28.3092L299.477 30.2209L300.674 29.6747C301.472 30.585 303.148 32.7333 303.468 34.0442C303.867 35.6827 304.665 37.0482 305.463 37.8675C306.101 38.5229 306.527 41.9639 306.66 43.6024L307.857 39.2329L309.453 38.6867L310.65 41.1446L312.246 38.1406L315.04 41.1446L318.232 35.4096L321.025 51.7952L325.414 32.9518L326.612 38.4137L328.208 38.6867L329.804 35.1365L331.001 37.5944L332.597 35.1365L333.794 36.2289L335.789 34.8635C336.587 37.5033 338.503 43.1108 339.78 44.4217L341.376 60.261L343.77 48.245L345.366 50.9759L346.962 77.739L348.558 72.5502C349.357 74.917 350.953 80.3606 350.953 83.2008C351.485 81.5622 352.868 78.012 354.145 76.9197L355.741 78.5582L356.938 67.6345L358.933 71.7309L359.731 63.2651C360.529 65.5408 362.285 71.3486 362.924 76.3735C363.722 82.6546 365.717 81.8353 365.717 83.4739C365.717 84.7847 367.579 111.875 368.51 125.257L369.707 112.149C369.973 113.15 370.745 115.316 371.702 115.972C372.9 116.791 374.097 120.888 374.097 121.161C374.097 121.379 375.161 131.811 375.693 137L378.486 113.514C379.417 113.059 381.359 111.821 381.678 110.51L384.471 77.739L385.669 83.4739C386.201 80.0147 387.265 73.151 387.265 73.3695C387.265 73.5879 388.329 76.5555 388.861 78.012L390.457 74.1888L392.851 78.8313L394.447 64.6305L396.043 62.992L397.64 65.1767L398.837 69.5462L401.231 69L403.226 71.4578L404.423 62.7189L405.62 65.4498L407.615 66.8153L410.01 81.2892L412.404 84.5663L413.202 86.751L414 85.6586V137H375.693H1V34.8635Z" fill="url(#paint0_linear_2559_610)"/>
<path d="M1 34.8635L2.99517 31.3133L6.58647 42.2369L8.58164 41.6908L9.77874 48.7912L11.3749 32.6787L15.7643 36.502L18.5575 29.9478L21.7498 47.9719L22.5478 90.3012L24.144 72.004L26.9372 81.5623L30.1295 69.2731L31.3266 67.0884C32.2577 63.174 34.1996 54.1984 34.5188 49.6104C34.9179 43.8755 36.913 34.3173 37.3121 33.498L38.5092 48.7912C38.6422 47.1526 40.0255 42.5647 44.4947 37.3213L46.0908 44.4217L47.2879 38.6868C47.953 43.0562 49.5225 52.0137 50.4802 52.8875L53.2734 41.4177L54.8696 43.3293L57.2638 20.9357L58.8599 36.502L60.456 38.6868L61.6531 45.241L63.2493 41.4177L64.4464 26.3976C65.6435 32.1325 68.7559 44.0394 71.629 45.7871L72.8261 37.3213L74.8213 35.4096L76.4174 41.6908L78.4126 37.3213L80.0087 41.4177L81.6048 43.3293L83.6 37.8675L84.7971 1C85.1961 5.7336 86.3134 15.6924 87.5903 17.6586L89.5855 17.3855L92.3787 35.9558L93.5759 30.7671L95.172 30.494L95.9701 29.1285L97.9652 32.4056L99.1623 23.3936L100.758 29.1285L101.956 30.494L103.552 40.0522L104.749 43.3293L106.744 40.0522L107.941 42.7831L109.138 62.992L110.734 50.7028L113.528 51.5221C114.326 49.7925 116.002 45.0771 116.321 40.0522L119.114 42.2369L120.71 40.8715L122.306 47.9719L123.902 60.5341L125.1 56.7108L126.696 65.4498L128.292 64.0843L132.282 50.1566L133.878 50.7028L135.474 49.0643H136.672L139.465 39.7791L141.061 40.8715L142.258 40.5984L144.253 61.6265L145.45 52.6145L147.046 51.5221H148.243L149.441 50.4297H151.037L153.431 43.3293L155.426 40.8715L157.022 28.5823L159.017 29.4016L159.815 31.0402L161.013 30.2209L164.205 41.1446L166.998 66.2691L167.796 48.7912L169.791 44.9679L171.387 55.6185L174.58 52.0683L176.575 50.1566L178.171 44.1486L180.166 43.3293L182.56 53.1606L183.757 44.4217L185.753 43.6024L186.95 45.241L189.344 45.7871L190.94 51.7952L192.536 53.1606L194.132 42.51L196.926 37.5944H200.118L201.714 33.7711L203.709 35.4096L204.507 31.8594L206.901 30.7671L208.498 33.498L210.094 32.9518L211.291 29.4016L212.887 28.3092L214.483 22.3012L215.68 23.9398L216.877 26.6707L218.872 25.8514L220.469 27.7631L221.666 31.8594L222.863 29.4016L224.459 29.9478L231.642 42.7831L233.238 37.5944L236.829 48.5181L238.824 56.7108L240.021 49.3374L242.016 59.1687L246.007 43.3293L247.204 42.51L248.8 45.5141L250.396 47.4257L251.194 55.3454L253.189 57.257L254.786 48.5181L255.983 49.8835L259.175 50.4297L260.372 53.7068L263.963 49.3374L264.761 45.5141L265.958 46.8795L267.954 42.7831L270.747 41.1446L271.944 42.7831L273.54 42.2369L274.338 45.5141L276.333 47.4257L277.53 44.4217L279.127 52.3414L280.723 42.7831L281.92 43.6024L283.516 44.1486L285.112 46.6064L287.506 35.6827L289.102 36.502L290.699 35.4096L292.295 35.6827C292.827 33.6801 294.05 29.5108 294.689 28.8554L296.684 33.2249V31.0402L297.482 32.6787L297.881 28.3092L299.477 30.2209L300.674 29.6747C301.472 30.585 303.148 32.7333 303.468 34.0442C303.867 35.6827 304.665 37.0482 305.463 37.8675C306.101 38.5229 306.527 41.9639 306.66 43.6024L307.857 39.2329L309.453 38.6868L310.65 41.1446L312.246 38.1406L315.04 41.1446L318.232 35.4096L321.025 51.7952L325.415 32.9518L326.612 38.4137L328.208 38.6868L329.804 35.1365L331.001 37.5944L332.597 35.1365L333.794 36.2289L335.789 34.8635C336.587 37.5033 338.503 43.1108 339.78 44.4217L341.376 60.261L343.77 48.245L345.366 50.9759L346.962 77.739L348.558 72.5502C349.357 74.917 350.953 80.3606 350.953 83.2008C351.485 81.5623 352.868 78.0121 354.145 76.9197L355.741 78.5582L356.938 67.6345L358.933 71.7309L359.731 63.2651C360.529 65.5408 362.285 71.3486 362.924 76.3735C363.722 82.6546 365.717 81.8353 365.717 83.4739C365.717 84.7847 367.579 111.876 368.51 125.257L369.707 112.149C369.973 113.15 370.745 115.316 371.702 115.972C372.9 116.791 374.097 120.888 374.097 121.161C374.097 121.379 375.161 131.811 375.693 137L378.486 113.514C379.417 113.059 381.359 111.821 381.678 110.51L384.472 77.739L385.669 83.4739C386.201 80.0147 387.265 73.151 387.265 73.3695C387.265 73.588 388.329 76.5556 388.861 78.012L390.457 74.1888L392.851 78.8313L394.447 64.6305L396.043 62.992L397.64 65.1767L398.837 69.5462L401.231 69L403.226 71.4578L404.423 62.7189L405.62 65.4498L407.615 66.8153L410.01 81.2892L412.404 84.5663L413.202 86.751L414 85.6586" stroke="#5F00D9" stroke-width="1.5" stroke-linecap="round" stroke-linejoin="round"/>
<defs>
<linearGradient id="paint0_linear_2559_610" x1="207.5" y1="1" x2="207.5" y2="137" gradientUnits="userSpaceOnUse">
<stop stop-color="#5200FF" stop-opacity="0.2"/>
<stop offset="1" stop-color="#4305F4" stop-opacity="0"/>
</linearGradient>
</defs>
</svg>
